<svg width="800" height="800" viewBox="0 0 800 800" fill="none" xmlns="http://www.w3.org/2000/svg">
<g clip-path="url(#clip0_10_251)">
<path fill-rule="evenodd" clip-rule="evenodd" d="M256.519 125.825C223.177 125.825 195.902 152.993 195.902 186.204C195.902 219.414 223.177 246.582 256.519 246.582C263.207 246.582 268.685 252.04 268.685 258.702C268.685 265.364 263.207 270.82 256.519 270.82H224.8C208.535 270.82 195.225 284.078 195.225 300.279C195.225 316.48 208.535 329.738 224.8 329.738C238.867 329.738 250.378 341.203 250.378 355.215C250.378 380.78 271.377 401.697 297.043 401.697H570.979C604.321 401.697 631.596 374.529 631.596 341.318C631.596 308.107 604.321 280.939 570.979 280.939H565.116C558.427 280.939 552.949 275.489 552.949 268.82C552.949 262.158 558.421 256.701 565.116 256.701H604.585C620.851 256.701 634.159 243.443 634.159 227.242C634.159 211.061 620.884 197.817 604.646 197.784H572.887C558.819 197.784 547.309 186.318 547.309 172.306C547.309 146.741 526.31 125.825 500.644 125.825H256.519Z" fill="url(#paint0_linear_10_251)"/>
<path d="M374.483 258.054L385.457 254.703L433.168 253.293L443.928 256.241L442.523 282.558L418.181 298.147L394.57 297.672L379.727 284.096L376.431 270.636L374.483 258.054Z" fill="#F8AE9D"/>
<path d="M512.226 300.375C508.773 293.228 505.463 287.49 502.512 282.96C496.717 274.034 487.854 267.559 477.611 264.769L438.698 254.184C438.698 254.184 436.677 293.214 409.914 293.214C383.151 293.214 377.935 256.614 377.935 256.614L332.905 274.648C331.358 275.252 320.913 278.876 308.764 305.034C297.187 329.942 292.129 342.698 292.129 342.698L338.522 356.143L341.415 398.02L340.427 421.936L481.236 421.62L480.448 394.281L481.035 352.361L482.798 355.223L529.662 336.356C529.662 336.356 523.63 323.931 512.226 300.375Z" fill="#FBC95F"/>
<path d="M405.367 271.977C416.787 271.765 429.761 249.406 429.761 249.406L430.506 191.971C431.103 175.428 420.851 161.334 402.373 161.257L400.657 161.334C383.459 162.158 369.839 174.661 369.379 190.068C368.944 204.408 368.683 220.249 369.242 227.902C370.411 243.744 388.417 241.07 388.417 241.07C388.454 241.07 388.368 249.05 388.417 253.711C388.554 264.179 400.782 272.333 405.367 271.977Z" fill="#F8AE9D"/>
<path d="M424.8 195.122C425.115 194.971 437.416 190.848 437.69 203.044C437.966 215.239 425.088 212.991 425.062 212.64C425.036 212.29 424.8 195.122 424.8 195.122ZM296.126 343.863L277.258 381.871C275.149 386.118 274.163 390.837 274.392 395.576C275.108 410.331 287.243 421.936 301.957 421.936L356.512 421.076L358.436 394.009L317.259 384.043L332.862 354.433L296.126 343.863ZM527.269 337.32C527.269 337.32 538.975 372.222 551.74 403.947C551.999 404.579 552.284 405.759 552.514 406.405C555.394 414.272 546.726 421.936 537.972 421.936L464.2 421.807V397.734L510.091 387.954L493.471 350.91L527.269 337.32Z" fill="#F8AE9D"/>
<path d="M379.411 396.626C379.426 396.712 381.102 396.181 383.896 396.007C386.675 395.821 390.615 396.137 394.541 397.82C398.467 399.503 401.433 402.134 403.209 404.276C405.014 406.42 405.788 408.016 405.859 407.958C405.888 407.944 405.716 407.541 405.33 406.851C404.943 406.16 404.326 405.183 403.453 404.076C401.704 401.847 398.724 399.114 394.713 397.403C390.701 395.692 386.675 395.404 383.867 395.692C382.463 395.821 381.331 396.05 380.572 396.252C379.812 396.439 379.397 396.597 379.411 396.626ZM381.933 390.802C381.962 390.917 383.666 390.069 386.604 389.982C389.526 389.853 393.638 390.744 397.478 393.074C401.318 395.418 404.198 398.381 406.232 400.509C407.206 401.544 408.009 402.407 408.639 403.069C409.212 403.673 409.527 404.003 409.556 403.974C409.584 403.96 409.298 403.586 408.768 402.954C408.022 402.052 407.258 401.165 406.476 400.294C404.484 398.107 401.619 395.073 397.708 392.685C393.796 390.313 389.569 389.45 386.589 389.666C385.099 389.752 383.91 390.025 383.122 390.298C382.721 390.413 382.434 390.557 382.233 390.644C382.033 390.73 381.933 390.787 381.933 390.802Z" fill="#EB996E"/>
<path d="M479.717 393.318H469.129C469.129 393.318 445.231 384.647 440.317 385.481C435.89 386.228 419.685 397.029 416.505 399.171C416.147 399.416 415.889 399.747 415.731 400.149C415.42 400.995 415.447 401.93 415.808 402.756C416.169 403.582 416.835 404.235 417.666 404.579L417.995 404.722L417.851 405.211C417.666 405.815 417.579 406.491 417.608 407.153C417.723 409.44 420.789 410.129 421.949 408.159L421.333 409.252C421.09 409.698 420.96 410.202 420.99 410.705L421.047 411.697C421.078 412.234 421.269 412.749 421.596 413.175C421.924 413.601 422.371 413.918 422.881 414.084C423.365 414.246 423.886 414.263 424.379 414.132C424.873 414.002 425.318 413.731 425.66 413.351C427.708 411.079 432.15 406.534 435.159 406.031C437.824 405.585 442.28 405.527 444.973 405.542C445.64 405.543 446.292 405.747 446.842 406.127C447.392 406.507 447.814 407.045 448.053 407.67C446.277 407.8 433.855 414.299 429.457 416.63C428.095 417.349 427.079 418.643 426.906 420.182C426.749 421.562 427.437 423.015 430.159 422.368C436.004 421.001 446.506 416.155 446.506 416.155C446.506 416.155 451.922 414.602 455.432 417.09C460.375 420.584 462.639 421.864 466.879 420.455C471.121 419.046 474.244 417.018 474.244 417.018L482.597 416.183C482.625 416.183 490.52 396.367 479.717 393.318Z" fill="#F8AE9D"/>
<path d="M448.154 397.374C448.139 397.46 446.463 396.928 443.669 396.755C440.889 396.569 436.95 396.885 433.024 398.567C429.098 400.25 426.132 402.882 424.356 405.024C422.55 407.167 421.776 408.763 421.705 408.706C421.676 408.692 421.849 408.289 422.236 407.599C422.789 406.626 423.416 405.698 424.113 404.824C425.86 402.594 428.84 399.862 432.852 398.15C436.864 396.44 440.889 396.152 443.698 396.44C444.81 396.536 445.911 396.724 446.993 397C447.752 397.202 448.168 397.345 448.154 397.374ZM445.632 391.55C445.603 391.665 443.899 390.817 440.962 390.73C438.039 390.601 433.927 391.492 430.087 393.822C426.248 396.166 423.368 399.129 421.333 401.257C420.359 402.292 419.557 403.155 418.926 403.817C418.353 404.421 418.038 404.751 418.009 404.722C417.981 404.708 418.267 404.334 418.797 403.702C419.543 402.799 420.307 401.912 421.089 401.041C423.081 398.855 425.947 395.821 429.858 393.434C433.769 391.061 437.996 390.198 440.976 390.414C442.466 390.5 443.655 390.773 444.443 391.046C444.844 391.162 445.131 391.305 445.331 391.391C445.532 391.478 445.632 391.536 445.632 391.55Z" fill="#EB996E"/>
<path d="M465.389 422.612H354.224C352.703 422.614 351.241 422.025 350.144 420.969C349.046 419.913 348.398 418.471 348.336 416.946L344.997 340.152C344.853 336.787 347.533 333.969 350.885 333.969H468.513C471.866 333.969 474.545 336.773 474.415 340.138L471.292 416.946C471.164 420.11 468.556 422.612 465.389 422.612Z" fill="#2E3B5E"/>
<path d="M420.932 379.711C420.934 381.21 420.641 382.695 420.07 384.08C419.499 385.465 418.662 386.723 417.606 387.783C416.55 388.843 415.296 389.683 413.917 390.256C412.537 390.829 411.058 391.124 409.565 391.122C408.071 391.124 406.592 390.829 405.213 390.256C403.833 389.683 402.579 388.843 401.523 387.783C400.467 386.723 399.63 385.465 399.059 384.08C398.488 382.695 398.195 381.21 398.196 379.711C398.195 378.213 398.488 376.728 399.059 375.343C399.63 373.958 400.467 372.7 401.523 371.64C402.579 370.581 403.833 369.74 405.213 369.167C406.593 368.594 408.071 368.3 409.565 368.301C415.85 368.301 420.932 373.429 420.932 379.711Z" fill="white"/>
<path d="M420.502 217.341H430.531V260.483H420.502V217.341Z" fill="#F8AE9D"/>
<path d="M424.439 178.793C422.631 181.133 419.444 181.649 416.819 182.112C413.29 182.733 411.543 184.029 409.711 187.507C408.552 189.728 407.391 192.162 405.315 193.365C403.628 194.348 403.688 191.843 403.421 189.903C403.396 189.731 403.361 189.561 403.318 189.393C402.909 187.844 401.266 188.108 400.785 189.636C400.345 191.012 399.405 192.175 398.208 192.823C398.013 192.929 397.805 193.021 397.598 192.981C397.317 192.942 397.097 192.678 396.914 192.44C396.53 191.941 396.149 191.307 395.755 190.638C394.46 188.434 392.01 189.222 390.563 191.329C389.66 192.638 388.586 193.987 387.108 194.291C386.632 194.396 386.033 194.318 385.814 193.855C385.532 193.285 385.972 192.717 385.898 192.135C385.838 191.593 385.605 191.355 385.349 190.892C384.343 189.096 382.04 189.032 380.624 190.524C379.639 191.561 378.612 192.557 377.546 193.511C377.095 193.908 376.435 194.304 375.983 193.908C375.739 193.696 375.678 193.338 375.629 192.995C375.372 191.315 375.128 189.636 374.872 187.957C374.726 187.018 374.224 185.788 373.369 186.026C372.955 186.145 372.71 186.581 372.479 186.978C372.197 187.48 367.179 193.207 367.081 192.77C366.3 189.517 364.7 186.555 363.918 183.302C358.863 162.368 381.295 145.534 398.428 145.442C402.238 145.416 405.718 145.478 409.418 146.364C413.363 147.316 417.527 148.828 421.105 150.957C426.123 153.932 429.922 159.34 428.945 165.794" fill="#2E3B5E"/>
<path d="M415.429 171.716C412.908 174.495 412.24 178.403 412.005 182.096C411.66 187.664 412.129 193.45 414.774 198.393C415.527 199.801 416.083 206.764 417.245 206.379C417.615 206.259 417.554 200.859 418.53 197.948C420.038 193.438 426.983 191.718 430.11 194.569C435.102 199.103 432.173 204.611 430.517 208.039C429.528 210.108 427.959 212.429 427.687 214.618C427.354 217.421 427.254 227.632 429.133 230.014C430.703 232.01 432.371 222.364 433.792 220.463C444.308 206.308 454.392 170.261 436.436 162.443C433.705 161.252 425.278 160.639 422.719 162.154" fill="#2E3B5E"/>
<path fill-rule="evenodd" clip-rule="evenodd" d="M298.764 180.942H295.42C294.611 180.942 293.96 180.282 293.96 179.477V176.121C293.96 175.309 294.618 174.655 295.42 174.655H298.764C299.15 174.657 299.521 174.812 299.794 175.086C300.068 175.361 300.222 175.732 300.223 176.121V179.477C300.224 179.669 300.186 179.86 300.113 180.038C300.04 180.216 299.933 180.378 299.797 180.514C299.661 180.65 299.5 180.758 299.323 180.831C299.146 180.905 298.956 180.942 298.764 180.942ZM287.169 180.942H283.825C283.439 180.941 283.068 180.786 282.795 180.511C282.521 180.237 282.367 179.865 282.366 179.477V176.121C282.366 175.309 283.023 174.655 283.825 174.655H287.169C287.556 174.657 287.926 174.812 288.2 175.086C288.473 175.361 288.627 175.732 288.629 176.121V179.477C288.627 179.865 288.473 180.237 288.2 180.511C287.926 180.786 287.556 180.941 287.169 180.942ZM275.567 180.942H272.224C271.837 180.941 271.466 180.786 271.193 180.511C270.92 180.237 270.765 179.865 270.764 179.477V176.121C270.764 175.309 271.421 174.655 272.224 174.655H275.567C275.954 174.657 276.325 174.812 276.598 175.086C276.871 175.361 277.026 175.732 277.027 176.121V179.477C277.028 179.669 276.99 179.86 276.917 180.038C276.844 180.216 276.736 180.378 276.601 180.514C276.465 180.65 276.304 180.758 276.127 180.831C275.949 180.905 275.759 180.942 275.567 180.942ZM263.973 180.942H260.629C260.242 180.941 259.872 180.786 259.598 180.511C259.325 180.237 259.171 179.865 259.169 179.477V176.121C259.169 175.309 259.827 174.655 260.629 174.655H263.973C264.781 174.655 265.44 175.315 265.44 176.121V179.477C265.435 179.865 265.279 180.237 265.005 180.511C264.731 180.785 264.36 180.94 263.973 180.942ZM252.377 180.942H249.034C248.225 180.942 247.567 180.282 247.567 179.477V176.121C247.567 175.309 248.225 174.655 249.034 174.655H252.377C252.764 174.657 253.135 174.812 253.408 175.086C253.681 175.361 253.836 175.732 253.837 176.121V179.477C253.836 179.865 253.681 180.237 253.408 180.511C253.135 180.786 252.764 180.941 252.377 180.942ZM286.744 168.252H283.4C282.599 168.252 281.94 167.591 281.94 166.787V163.423C281.942 163.035 282.096 162.663 282.37 162.389C282.643 162.115 283.014 161.96 283.4 161.959H286.744C287.553 161.959 288.204 162.619 288.204 163.423V166.78C288.205 166.973 288.168 167.164 288.095 167.343C288.022 167.522 287.915 167.684 287.779 167.821C287.643 167.958 287.482 168.067 287.304 168.141C287.127 168.215 286.936 168.253 286.744 168.252ZM275.149 168.252H271.806C271.419 168.251 271.048 168.096 270.775 167.822C270.502 167.547 270.347 167.175 270.346 166.787V163.423C270.347 163.035 270.502 162.663 270.775 162.389C271.049 162.115 271.419 161.96 271.806 161.959H275.149C275.536 161.96 275.906 162.115 276.18 162.389C276.453 162.663 276.607 163.035 276.609 163.423V166.78C276.61 166.973 276.573 167.164 276.5 167.343C276.428 167.522 276.32 167.684 276.185 167.821C276.049 167.958 275.888 168.067 275.71 168.141C275.532 168.215 275.342 168.253 275.149 168.252ZM263.555 168.252H260.211C259.402 168.252 258.744 167.591 258.744 166.787V163.423C258.744 162.619 259.402 161.959 260.211 161.959H263.555C263.941 161.96 264.312 162.115 264.585 162.389C264.858 162.663 265.013 163.035 265.014 163.423V166.78C265.014 167.591 264.356 168.252 263.555 168.252ZM275.567 194.576H272.224C271.837 194.574 271.466 194.42 271.193 194.145C270.92 193.871 270.765 193.499 270.764 193.111V189.754C270.764 188.942 271.421 188.288 272.224 188.288H275.567C275.954 188.29 276.325 188.445 276.598 188.719C276.871 188.994 277.026 189.365 277.027 189.754V193.111C277.028 193.303 276.99 193.494 276.917 193.672C276.844 193.85 276.736 194.012 276.601 194.148C276.465 194.284 276.304 194.392 276.127 194.465C275.949 194.539 275.759 194.576 275.567 194.576ZM263.973 194.576H260.629C260.242 194.574 259.872 194.42 259.598 194.145C259.325 193.871 259.171 193.499 259.169 193.111V189.754C259.169 188.942 259.827 188.288 260.629 188.288H263.973C264.781 188.288 265.44 188.949 265.44 189.754V193.111C265.435 193.499 265.279 193.87 265.005 194.145C264.731 194.419 264.36 194.573 263.973 194.576Z" fill="#FBC95F"/>
<path d="M243.336 259.893C243.131 253.444 241.673 246.85 239.105 240.687C205.672 252.457 215.468 238.633 235.696 233.949C230.254 224.809 221.999 217.393 211.197 213.963C198.115 209.813 182.61 219.263 172.609 233.21C188.34 239.762 184.992 260.613 168.686 239.393C165.421 245.268 163.183 251.595 162.423 257.901C160.513 273.43 167.639 288.672 190.702 295.451C227.871 306.44 244.157 284.194 243.336 259.893ZM219.965 251.964C229.781 252.252 216.043 263.283 208.691 257.942C204.091 254.574 210.129 251.676 219.965 251.964Z" fill="#FCC349"/>
<path d="M181.727 418.515C180.105 292.78 211.176 213.983 211.176 213.983" stroke="#FCC349" stroke-width="2.5" stroke-miterlimit="10"/>
<path d="M173.416 268.068C168.281 289.822 162.552 277.702 168.753 263.406C158.67 254.737 143.884 250.218 127.476 255.045C114.23 258.948 107.946 268.356 106.919 278.956C128.133 277.928 133.308 291.527 106.816 283.988C108.069 307.693 133.02 333.884 164.112 317.758C186.928 305.927 186.291 283.187 173.416 268.068ZM142.672 297.073C131.418 300.093 130.864 291.774 140.701 290.623C147.704 289.802 153.927 294.054 142.672 297.073Z" fill="#FCC349"/>
<path d="M172.034 378.603C177.189 299.662 132.173 259.914 132.173 259.914" stroke="#FCC349" stroke-width="2.5" stroke-miterlimit="10"/>
<path d="M261.991 314.523C272.917 300.226 273.184 276.829 264.785 269.845C256.837 263.231 246.692 262.429 236.916 265.141C239.402 280.013 227.285 286.545 230.181 267.606C207.406 277.815 190.382 305.484 215.723 319.165C235.027 329.559 248.828 326.992 257.802 319.083C225.108 316.988 241.846 308.134 261.991 314.523ZM253.448 290.469C262.978 293.283 261.642 296.282 251.087 297.083C240.551 297.884 241.147 286.874 253.448 290.469Z" fill="#FCC349"/>
<path d="M199.881 377.883C196.739 299.661 258.266 271.067 258.266 271.067" stroke="#FCC349" stroke-width="2.5" stroke-miterlimit="10"/>
<path d="M137.575 369.284H234.626L221.259 407.174C217.837 416.87 208.655 423.377 198.361 423.377H173.82C163.525 423.377 154.345 416.889 150.923 407.175L137.575 369.284Z" fill="white"/>
<path d="M150.923 407.175C154.345 416.889 163.525 423.377 173.82 423.377H198.361C208.655 423.377 217.837 416.87 221.259 407.174L234.626 369.284H137.575L150.923 407.175ZM150.923 407.175L149.238 407.773" stroke="#FBC95F" stroke-width="4"/>
<path d="M123.869 367.957V362.114H247.126V367.957H123.869Z" fill="#FBC95F" stroke="#FBC95F" stroke-width="4"/>
<path d="M616.741 370.053L612.654 421.078H584.372L580.276 370.053H616.741Z" fill="#FCC349"/>
<path d="M619.08 365.452H577.504V372.889H619.08V365.452ZM616.231 365.452H580.352L582.447 357.09H614.127L616.231 365.452Z" fill="#2E3B5E"/>
<path d="M606.607 396.04C606.607 397.136 606.392 398.221 605.975 399.234C605.557 400.247 604.944 401.167 604.172 401.942C603.4 402.717 602.483 403.332 601.474 403.751C600.465 404.17 599.384 404.386 598.292 404.386C597.2 404.386 596.119 404.17 595.11 403.751C594.101 403.332 593.184 402.717 592.412 401.942C591.64 401.167 591.027 400.247 590.609 399.234C590.192 398.221 589.977 397.136 589.977 396.04C589.977 394.944 590.191 393.858 590.609 392.845C591.027 391.833 591.639 390.912 592.412 390.137C593.184 389.362 594.101 388.747 595.11 388.328C596.119 387.909 597.2 387.693 598.292 387.694C599.384 387.693 600.465 387.909 601.474 388.328C602.483 388.748 603.4 389.362 604.172 390.138C604.944 390.913 605.557 391.833 605.975 392.845C606.392 393.858 606.607 394.944 606.607 396.04Z" fill="white"/>
<path fill-rule="evenodd" clip-rule="evenodd" d="M532 204.632V162.098C532 157.692 535.548 154.124 539.929 154.124H587.501C591.882 154.124 595.43 157.692 595.43 162.098V204.632C595.43 206.053 595.052 207.449 594.335 208.675C593.618 209.9 592.587 210.911 591.35 211.603L567.564 224.892C566.387 225.551 565.061 225.897 563.713 225.897C562.365 225.897 561.039 225.551 559.862 224.892L536.075 211.603C534.839 210.91 533.81 209.898 533.094 208.673C532.377 207.448 532 206.053 532 204.632Z" fill="#FBC95F"/>
<path d="M550.531 189.294H576.9M550.531 176.894H576.9M550.531 201.338H576.9" stroke="white" stroke-width="2.677" stroke-linecap="round" stroke-linejoin="round"/>
<path d="M694.503 421.032H124.626C122.403 421.032 120.6 422.841 120.6 425.072C120.6 427.304 122.403 429.113 124.626 429.113H694.503C696.727 429.113 698.53 427.304 698.53 425.072C698.53 422.841 696.727 421.032 694.503 421.032Z" fill="#FBC95F"/>
<path d="M565.441 320.291L549.158 336.635C548.565 337.231 548.564 338.196 549.157 338.791C549.75 339.386 550.712 339.386 551.305 338.79L567.588 322.446C568.181 321.851 568.181 320.886 567.589 320.291C566.996 319.696 566.034 319.696 565.441 320.291Z" fill="#FBC95F"/>
<path d="M563.847 331.993L559.151 336.706C558.558 337.302 558.558 338.267 559.151 338.862C559.744 339.457 560.705 339.457 561.298 338.861L565.994 334.148C566.587 333.553 566.587 332.588 565.994 331.993C565.401 331.397 564.44 331.398 563.847 331.993Z" fill="#FBC95F"/>
</g>
<defs>
<linearGradient id="paint0_linear_10_251" x1="424.051" y1="556.367" x2="418.705" y2="-174.338" gradientUnits="userSpaceOnUse">
<stop stop-color="white"/>
<stop offset="1" stop-color="#FCC349"/>
</linearGradient>
<clipPath id="clip0_10_251">
<rect width="804" height="800" fill="white" transform="matrix(-1 0 0 1 804 0)"/>
</clipPath>
</defs>
</svg>
